<?xml version="1.0" ?><svg width="64px" height="64px" viewBox="0 0 64 64" xmlns="http://www.w3.org/2000/svg"><defs><style>.cls-1{fill:none;stroke:#000;stroke-linejoin:round;stroke-width:2px;}</style></defs><title/><g data-name="Layer 13" id="Layer_13"><polyline class="cls-1" points="26 36 26 40 32 44 38 40 38 36"/><path class="cls-1" d="M26,40H12.83A6.84,6.84,0,0,0,8,42H8a6.84,6.84,0,0,0-2,4.83V62H58V46.83A6.84,6.84,0,0,0,56,42h0a6.84,6.84,0,0,0-4.83-2H38"/><line class="cls-1" x1="14" x2="14" y1="40" y2="62"/><line class="cls-1" x1="50" x2="50" y1="40" y2="62"/><path class="cls-1" d="M41,12H23l-2,2v3l-2,2v9a8,8,0,0,0,8,8H37a8,8,0,0,0,8-8V19l-2-2V14Z"/><path class="cls-1" d="M19,29H17a4,4,0,0,1-4-4h0a4,4,0,0,1,4-4h2"/><path class="cls-1" d="M45,29h2a4,4,0,0,0,4-4h0a4,4,0,0,0-4-4H45"/><line class="cls-1" x1="25" x2="25" y1="19" y2="23"/><line class="cls-1" x1="39" x2="39" y1="19" y2="23"/><path class="cls-1" d="M29,29v1a2,2,0,0,0,2,2h2a2,2,0,0,0,2-2V29"/><path class="cls-1" d="M15,21V19A17,17,0,0,1,32,2h0A17,17,0,0,1,49,19v2"/><polyline class="cls-1" points="20 40 32 52 44 40"/><line class="cls-1" x1="32" x2="32" y1="52" y2="59"/><line class="cls-1" x1="29" x2="35" y1="55" y2="55"/></g></svg>