<?xml version="1.0" ?><svg width="32px" height="32px" viewBox="0 0 32 32" data-name="Layer 1" id="Layer_1" xmlns="http://www.w3.org/2000/svg"><defs><style>.cls-1{fill:#4d4d4d;}</style></defs><title/><path class="cls-1" d="M9.28,25h0A5,5,0,0,0,10,22a3.16,3.16,0,0,0-3-3,3.16,3.16,0,0,0-3,3,5,5,0,0,0,.74,3h0c-.36.1-2.72,1.2-2.72,3a1,1,0,0,0,2,0c0-.28.89-.88,1.28-1l.11,0a2.35,2.35,0,0,0,1.1-.57,2.63,2.63,0,0,0,1,0,2.35,2.35,0,0,0,1.1.57l.07,0c.43.16,1.28.77,1.32,1.05a1,1,0,0,0,2,0C12,26.24,9.64,25.14,9.28,25ZM7,21a1.17,1.17,0,0,1,1,1,2.68,2.68,0,0,1-.71,2.29h0a.35.35,0,0,1-.58,0A2.68,2.68,0,0,1,6,22,1.17,1.17,0,0,1,7,21Z"/><path class="cls-1" d="M27.28,25h0A5,5,0,0,0,28,22a3.16,3.16,0,0,0-3-3,3.16,3.16,0,0,0-3,3,5,5,0,0,0,.74,3h0c-.36.1-2.72,1.2-2.72,3a1,1,0,0,0,2,0c0-.28.89-.88,1.28-1l.11,0a2.35,2.35,0,0,0,1.1-.57,2.63,2.63,0,0,0,1,0,2.35,2.35,0,0,0,1.1.57l.07,0c.43.16,1.28.77,1.32,1.05a1,1,0,0,0,2,0C30,26.24,27.64,25.14,27.28,25ZM25,21a1.17,1.17,0,0,1,1,1,2.68,2.68,0,0,1-.71,2.29h0a.35.35,0,0,1-.58,0A2.68,2.68,0,0,1,24,22,1.17,1.17,0,0,1,25,21Z"/><path class="cls-1" d="M12,13a1,1,0,0,0,1-1c0-.28.89-.89,1.28-1l.11,0a2.3,2.3,0,0,0,1.1-.58,2.2,2.2,0,0,0,1,0,2.3,2.3,0,0,0,1.1.58l.07,0c.43.16,1.28.77,1.32,1.05a1,1,0,0,0,2,0c0-1.77-2.36-2.86-2.72-3h0A5,5,0,0,0,19,6a3.16,3.16,0,0,0-3-3,3.16,3.16,0,0,0-3,3,5,5,0,0,0,.74,3h0c-.36.1-2.72,1.19-2.72,3A1,1,0,0,0,12,13Zm4-8a1.17,1.17,0,0,1,1,1,2.68,2.68,0,0,1-.71,2.29.41.41,0,0,1-.58,0A2.68,2.68,0,0,1,15,6,1.17,1.17,0,0,1,16,5Z"/><path class="cls-1" d="M20.6,20.2,17,17.5V14a1,1,0,0,0-2,0v3.5l-3.6,2.7a1,1,0,0,0-.2,1.4,1,1,0,0,0,.8.4,1,1,0,0,0,.6-.2L16,19.25l3.4,2.55a1,1,0,0,0,.6.2,1,1,0,0,0,.8-.4A1,1,0,0,0,20.6,20.2Z"/></svg>