<?xml version="1.0" ?><svg viewBox="0 0 64 64" xmlns="http://www.w3.org/2000/svg" xmlns:xlink="http://www.w3.org/1999/xlink"><style>:root>svg{display:none}:root>svg:target{display:block}</style><svg viewBox="0 0 64 64" id="administration-calendar-calendars-svgrepo-com" xmlns="http://www.w3.org/2000/svg"><defs><style>.acls-1{fill:none;stroke:#000;stroke-linejoin:round;stroke-width:2px}</style></defs><g data-name="Layer 23" id="aLayer_23"><path class="acls-1" d="M2 15h60v12H2zM4 27h56v35H4zM35 6l9 9M20 15l9-9"/><circle class="acls-1" cx="32" cy="5" r="3"/><path class="acls-1" d="M16 27v6.06A1.94 1.94 0 0114.06 35H14a2 2 0 01-2-1.94V33a2 2 0 00-2-2 2 2 0 00-2 2v2a2 2 0 01-2 2 2 2 0 01-2-2v-8M10 19h10v4H10zM44 19h10v4H44zM19 31h6v6h-6zM29 31h6v6h-6zM39 31h6v6h-6zM49 31h6v6h-6zM9 41h6v6H9zM19 41h6v6h-6zM29 41h6v6h-6zM39 41h6v6h-6zM49 41h6v6h-6zM9 51h6v6H9zM19 51h6v6h-6zM29 51h6v6h-6zM39 51h6v6h-6zM49 51h6v6h-6zM29 31l6 6"/></g></svg><svg viewBox="0 0 64 64" id="and-cultures-jobs-svgrepo-com" xmlns="http://www.w3.org/2000/svg"><defs><style>.bcls-1{fill:none;stroke:#000;stroke-linejoin:round;stroke-width:2px}</style></defs><g data-name="Layer 13" id="bLayer_13"><path class="bcls-1" d="M26 36v4l6 4 6-4v-4"/><path class="bcls-1" d="M26 40H12.83A6.84 6.84 0 008 42a6.84 6.84 0 00-2 4.83V62h52V46.83A6.84 6.84 0 0056 42a6.84 6.84 0 00-4.83-2H38M14 40v22M50 40v22M41 12H23l-2 2v3l-2 2v9a8 8 0 008 8h10a8 8 0 008-8v-9l-2-2v-3zM19 29h-2a4 4 0 01-4-4 4 4 0 014-4h2M45 29h2a4 4 0 004-4 4 4 0 00-4-4h-2M25 19v4M39 19v4"/><path class="bcls-1" d="M29 29v1a2 2 0 002 2h2a2 2 0 002-2v-1M15 21v-2A17 17 0 0132 2a17 17 0 0117 17v2M20 40l12 12 12-12M32 52v7M29 55h6"/></g></svg><svg data-name="Layer 1" viewBox="0 0 32 32" id="avatar-human-person-svgrepo-com" xmlns="http://www.w3.org/2000/svg"><path class="ccls-1" d="M22.82 20.55l-.63-.18c-1.06-.29-1.79-.51-1.91-1.75 2.83-3 2.79-5.67 2.73-8.47V9a7.1 7.1 0 00-7-7A7.1 7.1 0 009 9v1.15c-.06 2.8-.1 5.45 2.73 8.47-.12 1.24-.85 1.46-1.91 1.75l-.63.18C5.61 21.74 2 25 2 29a1 1 0 002 0c0-3 3-5.61 5.82-6.55.16-.06.34-.1.52-.15a4.11 4.11 0 003.11-2.3 5.4 5.4 0 005.1 0 4.11 4.11 0 003.11 2.35c.18.05.36.09.52.15C25 23.39 28 26 28 29a1 1 0 002 0c0-4-3.61-7.26-7.18-8.45zm-9.36-3C10.9 15 10.94 12.86 11 10.18V9a5 5 0 0110 0v1.18c0 2.68.09 4.8-2.47 7.36a3.58 3.58 0 01-5.07 0z"/></svg><svg data-name="Layer 1" id="bullseye-dart-goal-svgrepo-com" viewBox="0 0 32 32" xmlns="http://www.w3.org/2000/svg"><defs><style>.dcls-1{fill:#4d4d4d}</style></defs><path class="dcls-1" d="M29.81 4.42a1 1 0 00-1.26-.31l-1.31.65.65-1.31a1 1 0 00-1.6-1.16l-4 4A1 1 0 0022 7v1.59l-6.71 6.7a1 1 0 000 1.42 1 1 0 001.42 0l6.7-6.71H25a1 1 0 00.71-.29l4-4a1 1 0 00.1-1.29z"/><path class="dcls-1" d="M13.09 15.29a2.38 2.38 0 01.15-.45.08.08 0 010-.05 2.83 2.83 0 01.62-.91l2.81-2.81A5.2 5.2 0 0016 11a5 5 0 105 5 5.2 5.2 0 00-.07-.69l-2.81 2.81a2.9 2.9 0 01-.9.62h-.06a2.38 2.38 0 01-.45.15h-.11a3 3 0 01-1.2 0h-.11a2.38 2.38 0 01-.45-.15h-.05a3 3 0 01-1.53-1.53.08.08 0 010-.05 2.38 2.38 0 01-.15-.45v-.11a3 3 0 010-1.2z"/><path class="dcls-1" d="M19.87 7.89A8.8 8.8 0 0016 7a9 9 0 109 9 8.8 8.8 0 00-.89-3.87l-1.52 1.53a7 7 0 11-4.25-4.25z"/><path class="dcls-1" d="M27.12 11.12a3 3 0 01-1 .65A10.83 10.83 0 0127 16 11 11 0 1116 5a10.83 10.83 0 014.23.85 3 3 0 01.65-1l.63-.64A12.86 12.86 0 0016 3a13 13 0 1013 13 12.86 12.86 0 00-1.24-5.51z"/></svg><svg data-name="Layer 1" id="connection-people-share-svgrepo-com" viewBox="0 0 32 32" xmlns="http://www.w3.org/2000/svg"><defs><style>.ecls-1{fill:#4d4d4d}</style></defs><path class="ecls-1" d="M9.28 25a5 5 0 00.72-3 3.16 3.16 0 00-3-3 3.16 3.16 0 00-3 3 5 5 0 00.74 3c-.36.1-2.72 1.2-2.72 3a1 1 0 002 0c0-.28.89-.88 1.28-1h.11a2.35 2.35 0 001.1-.57 2.63 2.63 0 001 0 2.35 2.35 0 001.1.57h.07c.43.16 1.28.77 1.32 1.05a1 1 0 002 0c0-1.81-2.36-2.91-2.72-3.05zM7 21a1.17 1.17 0 011 1 2.68 2.68 0 01-.71 2.29.35.35 0 01-.58 0A2.68 2.68 0 016 22a1.17 1.17 0 011-1zM27.28 25a5 5 0 00.72-3 3.16 3.16 0 00-3-3 3.16 3.16 0 00-3 3 5 5 0 00.74 3c-.36.1-2.72 1.2-2.72 3a1 1 0 002 0c0-.28.89-.88 1.28-1h.11a2.35 2.35 0 001.1-.57 2.63 2.63 0 001 0 2.35 2.35 0 001.1.57h.07c.43.16 1.28.77 1.32 1.05a1 1 0 002 0c0-1.81-2.36-2.91-2.72-3.05zM25 21a1.17 1.17 0 011 1 2.68 2.68 0 01-.71 2.29.35.35 0 01-.58 0A2.68 2.68 0 0124 22a1.17 1.17 0 011-1zM12 13a1 1 0 001-1c0-.28.89-.89 1.28-1h.11a2.3 2.3 0 001.1-.58 2.2 2.2 0 001 0 2.3 2.3 0 001.1.58h.07c.43.16 1.28.77 1.32 1.05a1 1 0 002 0c0-1.77-2.36-2.86-2.72-3A5 5 0 0019 6a3.16 3.16 0 00-3-3 3.16 3.16 0 00-3 3 5 5 0 00.74 3c-.36.1-2.72 1.19-2.72 3a1 1 0 00.98 1zm4-8a1.17 1.17 0 011 1 2.68 2.68 0 01-.71 2.29.41.41 0 01-.58 0A2.68 2.68 0 0115 6a1.17 1.17 0 011-1z"/><path class="ecls-1" d="M20.6 20.2L17 17.5V14a1 1 0 00-2 0v3.5l-3.6 2.7a1 1 0 00-.2 1.4 1 1 0 00.8.4 1 1 0 00.6-.2l3.4-2.55 3.4 2.55a1 1 0 00.6.2 1 1 0 00.8-.4 1 1 0 00-.2-1.4z"/></svg><svg data-name="Layer 1" id="flowchart-hierarchy-process-svgrepo-com" viewBox="0 0 32 32" xmlns="http://www.w3.org/2000/svg"><defs><style>.fcls-1{fill:#4d4d4d}</style></defs><path class="fcls-1" d="M24 10h4a2 2 0 002-2V4a2 2 0 00-2-2h-4a2 2 0 00-2 2v1h-3a2 2 0 00-2 2v8h-3v-3a2 2 0 00-2-2H4a2 2 0 00-2 2v8a2 2 0 002 2h8a2 2 0 002-2v-3h3v8a2 2 0 002 2h3v1a2 2 0 002 2h4a2 2 0 002-2v-4a2 2 0 00-2-2h-4a2 2 0 00-2 2v1h-3v-8h3v1a2 2 0 002 2h4a2 2 0 002-2v-4a2 2 0 00-2-2h-4a2 2 0 00-2 2v1h-3V7h3v1a2 2 0 002 2zM12 20H4v-8h8zm12 4h4v4h-4zm0-10h4v4h-4zm0-10h4v4h-4z"/></svg></svg>